<?xml version="1.0" standalone="no"?>
<!DOCTYPE svg PUBLIC "-//W3C//DTD SVG 20010904//EN"
 "http://www.w3.org/TR/2001/REC-SVG-20010904/DTD/svg10.dtd">
<svg version="1.0" xmlns="http://www.w3.org/2000/svg"
 width="1200.000000pt" height="1200.000000pt" viewBox="0 0 1200.000000 1200.000000"
 preserveAspectRatio="xMidYMid meet">
<metadata>
Created by potrace 1.14, written by Peter Selinger 2001-2017
</metadata>
<g transform="translate(0.000000,1200.000000) scale(0.100000,-0.100000)"
fill="#000000" stroke="none">
<path d="M3157 10204 c-71 -17 -163 -61 -220 -105 -98 -75 -183 -212 -207
-332 -8 -42 -12 -267 -12 -783 l0 -724 -541 0 c-590 -1 -612 -3 -728 -57 -163
-76 -294 -248 -316 -415 -4 -29 -7 -1281 -7 -2783 0 -2214 2 -2740 13 -2785
46 -195 190 -348 391 -416 53 -18 164 -19 3675 -19 l3620 0 74 27 c154 57 267
160 330 299 52 117 53 126 53 905 l0 723 566 4 c312 1 581 6 597 10 17 5 67
26 113 48 145 70 256 204 298 359 16 61 18 230 19 2795 0 1502 -3 2755 -8
2785 -17 118 -74 228 -163 316 -60 60 -119 97 -213 133 l-66 26 -3605 2
c-3073 1 -3614 -1 -3663 -13z m7240 -382 c24 -13 55 -40 70 -64 l28 -42 3
-385 3 -386 -3693 1 c-2031 1 -3698 2 -3704 3 -7 1 -10 115 -9 379 1 326 3
381 17 407 26 48 68 84 113 98 34 9 800 12 3586 11 l3544 0 42 -22z m103
-3404 c0 -2081 -1 -2154 -19 -2194 -24 -52 -75 -92 -132 -102 -24 -4 -1632 -7
-3574 -7 -3185 1 -3533 3 -3565 17 -43 19 -74 49 -97 91 -17 30 -18 160 -18
2190 l-1 2157 3703 0 3703 0 0 -2152z m-7789 1463 c4 -1 7 -814 7 -1808 0
-1331 3 -1825 12 -1873 38 -214 219 -400 435 -446 48 -11 621 -13 2894 -14
1558 0 2836 -2 2840 -4 4 -3 7 -328 6 -723 l0 -718 -23 -40 c-28 -48 -73 -81
-127 -92 -22 -5 -1631 -8 -3575 -8 l-3535 1 -42 22 c-25 13 -55 40 -70 64
l-28 42 -3 2715 c-2 1864 0 2727 8 2752 20 71 76 117 155 128 31 5 1018 6
1046 2z"/>
<path d="M3920 9726 c-153 -44 -251 -172 -252 -329 -1 -163 133 -305 307 -326
157 -19 304 59 372 197 22 46 27 68 27 136 0 100 -31 172 -100 236 -92 85
-237 120 -354 86z m115 -297 c9 -13 -3 -59 -14 -59 -13 0 -20 25 -14 49 6 23
18 27 28 10z"/>
<path d="M4883 9725 c-99 -30 -186 -105 -225 -193 -33 -73 -31 -190 4 -262 62
-128 179 -201 323 -202 230 0 392 187 349 401 -22 106 -88 188 -193 238 -66
31 -189 40 -258 18z m118 -295 c1 -5 2 -17 2 -25 0 -30 -3 -35 -18 -35 -15 0
-22 50 -8 63 10 10 23 8 24 -3z"/>
<path d="M5874 9731 c-233 -60 -340 -317 -211 -507 139 -208 458 -208 598 1
146 217 -10 501 -281 511 -41 2 -89 0 -106 -5z m104 -329 c2 -23 -1 -32 -11
-32 -19 0 -27 22 -20 49 8 31 27 20 31 -17z"/>
<path d="M7015 7762 c-50 -24 -79 -56 -99 -107 -13 -36 -73 -245 -81 -287 -2
-9 -11 -41 -20 -70 -8 -29 -40 -143 -70 -253 -104 -383 -125 -460 -144 -530
-35 -124 -122 -440 -126 -455 -2 -8 -42 -157 -90 -330 -99 -359 -103 -394 -50
-470 74 -106 233 -110 302 -7 12 18 59 172 111 362 50 182 188 686 308 1120
119 435 219 813 221 841 10 107 -61 190 -168 200 -40 4 -64 0 -94 -14z"/>
<path d="M5785 7670 c-53 -11 -69 -22 -185 -130 -9 -8 -65 -60 -125 -115 -60
-55 -122 -111 -136 -125 -14 -14 -46 -42 -70 -64 -24 -21 -91 -82 -148 -135
-57 -53 -109 -100 -115 -106 -6 -5 -63 -57 -126 -115 -63 -58 -120 -109 -126
-115 -210 -192 -224 -210 -224 -299 0 -88 7 -97 350 -406 52 -47 107 -97 123
-112 17 -15 61 -56 100 -90 39 -35 80 -72 91 -83 12 -11 64 -58 116 -105 52
-47 97 -88 100 -91 3 -3 32 -30 65 -60 33 -30 100 -90 148 -134 105 -96 138
-115 197 -115 104 1 178 67 187 167 6 75 -17 117 -112 204 -39 35 -119 109
-179 164 -131 120 -98 90 -291 265 -88 79 -165 149 -171 155 -53 49 -215 198
-239 219 -27 23 -28 27 -14 39 9 6 67 59 130 117 199 184 263 243 304 281 81
75 191 175 245 225 127 118 198 183 242 223 75 68 98 138 71 216 -30 85 -125
143 -208 125z"/>
<path d="M7708 7669 c-90 -24 -145 -137 -115 -234 12 -40 30 -60 183 -200 116
-107 242 -223 260 -240 6 -5 57 -53 114 -105 56 -52 115 -106 130 -120 15 -14
71 -66 126 -116 54 -50 122 -112 149 -138 l50 -46 -51 -47 c-62 -59 -258 -241
-338 -314 -33 -30 -71 -65 -86 -79 -15 -14 -78 -72 -141 -130 -63 -58 -143
-132 -179 -165 -35 -33 -70 -64 -76 -70 -64 -54 -134 -132 -139 -153 -13 -63
-13 -75 0 -118 22 -74 92 -124 175 -124 60 0 96 20 185 100 44 40 122 112 174
159 52 47 102 93 111 101 19 16 237 215 320 290 15 14 67 61 115 105 49 44
100 91 114 104 14 12 62 55 106 95 130 117 153 143 163 193 10 47 8 76 -9 129
-11 36 -18 44 -135 150 -49 45 -105 97 -125 115 -20 19 -80 75 -134 124 -54
50 -110 101 -124 114 -14 13 -64 58 -110 100 -46 42 -89 81 -95 86 -6 6 -45
42 -86 79 -41 38 -100 92 -130 121 -265 246 -294 263 -402 234z"/>
</g>
</svg>
